PathFileType	4	(X/Y/Z)	E:\Qualisys_Data\Carbon_Farble_Plate\Data\Amateur_Runner\S14\T1\S14T1V23_c3d.trc
DataRate	CameraRate	NumFrames	NumMarkers	Units	OrigDataRate	OrigDataStartFrame	OrigNumFrames
200.000000	200.000000	4	39	mm	200.000000	269	308
Frame#	Time	LSHO			RSHO			LICST			RICST			LASIS			LHEEL			RASIS			LTROC			RTROC			SACR			LTH1			LSK4			LTH2			LTH3			RHM5			LSK2			LTH4			RTH1			LTOE			RTH2			RTH3			RTH4			LLEP			RLEP			LSK1			LSK3			RSK1			LHM5			RSK2			LFT1			RSK3			RSK4			LLME			RLME			RTOE			RHEEL			RFT1			RFT2			LFT2			
		X1	Y1	Z1	X2	Y2	Z2	X3	Y3	Z3	X4	Y4	Z4	X5	Y5	Z5	X6	Y6	Z6	X7	Y7	Z7	X8	Y8	Z8	X9	Y9	Z9	X10	Y10	Z10	X11	Y11	Z11	X12	Y12	Z12	X13	Y13	Z13	X14	Y14	Z14	X15	Y15	Z15	X16	Y16	Z16	X17	Y17	Z17	X18	Y18	Z18	X19	Y19	Z19	X20	Y20	Z20	X21	Y21	Z21	X22	Y22	Z22	X23	Y23	Z23	X24	Y24	Z24	X25	Y25	Z25	X26	Y26	Z26	X27	Y27	Z27	X28	Y28	Z28	X29	Y29	Z29	X30	Y30	Z30	X31	Y31	Z31	X32	Y32	Z32	X33	Y33	Z33	X34	Y34	Z34	X35	Y35	Z35	X36	Y36	Z36	X37	Y37	Z37	X38	Y38	Z38	X39	Y39	Z39	

270	1.345	2355.693115234375	1453.202026367188	-498.3572387695312	2295.369140625	1458.161254882812	-206.4526519775391	2336.5478515625	1002.945434570312	-470.9143676757812	2344.935791015625	1014.554748535156	-194.8639984130859	2375.74267578125	952.3004760742188	-443.712646484375	1873.368408203125	227.9545288085938	-366.7286071777344	2374.59521484375	972.8670654296876	-213.0524749755859	2216.900390625	892.1719970703125	-483.8956298828125	2246.013671875	911.3233642578124	-156.3677520751953	2202.483154296875	1006.943359375	-339.2978210449219	2242.179931640625	662.7757568359375	-488.8135070800781	2001.54833984375	375.1850280761719	-442.5293273925781	2169.322021484375	682.1998901367188	-464.9749145507812	2226.52685546875	566.2288208007812	-466.7734069824219	2400.65087890625	109.3295822143555	-180.9163970947266	2062.093994140625	452.294921875	-459.4145202636719	2150.909423828125	586.3864135742188	-448.1287536621094	2480.01171875	738.525146484375	-171.3652038574219	2026.633544921875	34.72612380981445	-391.1062927246094	2412.445068359375	703.1074829101562	-158.5055999755859	2527.447265625	653.1866455078125	-199.1575469970703	2457.190185546875	613.100341796875	-176.4167175292969	2175.08984375	507.2464294433594	-458.3587036132812	2499.582275390625	560.1497802734375	-186.6857147216797	2127.09130859375	401.8119812011719	-460.0284118652344	2063.361083984375	322.8822021484375	-448.5751647949219	2480.8017578125	439.8573913574219	-183.3500518798828	1964.4775390625	60.46377563476562	-450.3810424804688	2403.1123046875	476.1929626464844	-179.4569549560547	1866.978515625	205.2329559326172	-336.6786193847656	2430.07080078125	349.994140625	-196.0404663085938	2361.10498046875	389.9757385253906	-190.2797546386719	1924.545654296875	203.8110961914062	-426.7610168457031	2310.82763671875	221.4981994628906	-209.0909881591797	2467.99658203125	82.57667541503906	-243.9467163085938	2247.962646484375	220.3911895751953	-262.5723571777344	2247.14306640625	186.3893737792969	-291.5673522949219	2238.131591796875	200.0042114257812	-235.0663146972656	1851.77685546875	206.6788482666016	-389.6632995605469
271	1.35	2374.794189453125	1456.4765625	-497.0237731933594	2311.77001953125	1461.12451171875	-206.2764282226562	2355.879638671875	1005.892028808594	-469.7835388183594	2363.684326171875	1017.935852050781	-195.2935943603516	2393.7666015625	954.7184448242188	-441.6381225585938	1888.525512695312	238.7517852783203	-370.5762939453125	2394.25830078125	976.969482421875	-212.4260864257812	2235.889892578125	896.2970581054688	-484.1290588378906	2265.091552734375	915.2326049804688	-156.3223114013672	2222.533447265625	1010.25	-339.468017578125	2257.461669921875	667.1497802734375	-489.6085815429688	2013.782836914062	381.1456909179688	-443.4401550292969	2185.4150390625	687.6812744140625	-464.4164733886719	2240.356201171875	571.0027465820312	-467.4989929199219	2440.66259765625	106.4161071777344	-181.4050750732422	2074.479736328125	458.5638427734375	-459.7496643066406	2165.4794921875	591.85205078125	-448.8675537109375	2499.074462890625	741.3291015625	-171.5224609375	2030.043579101562	33.08335113525391	-391.4949340820312	2431.078369140625	705.7993774414062	-159.3955230712891	2546.33154296875	655.7836303710938	-198.4988403320312	2475.7841796875	615.8609008789062	-177.2099914550781	2187.73974609375	512.7691040039062	-459.4770202636719	2518.54541015625	562.741455078125	-186.3386688232422	2139.021728515625	407.8437194824219	-461.4606018066406	2075.237060546875	328.9975891113281	-450.2829895019531	2504.921875	440.935302734375	-183.1832580566406	1970.39013671875	63.78961181640625	-450.5813293457031	2424.8154296875	473.7874145507812	-178.8608551025391	1879.613647460938	215.2766571044922	-338.9537963867188	2458.178466796875	348.4444885253906	-195.6161499023438	2387.24951171875	385.4012145996094	-190.2789611816406	1937.385986328125	210.1615295410156	-428.6746826171875	2345.302001953125	214.2393646240234	-208.8841400146484	2509.020263671875	83.95642852783203	-243.9641418457031	2282.66796875	209.9368896484375	-262.91357421875	2283.833740234375	176.5192108154297	-292.2272033691406	2273.771240234375	189.2124633789062	-234.8876495361328	1864.866821289062	216.8822174072266	-392.7014465332031
272	1.355	2393.416259765625	1459.568481445312	-495.43115234375	2329.825927734375	1463.866333007812	-206.0615844726562	2377.25634765625	1009.033447265625	-470.0155944824219	2383.11962890625	1021.354309082031	-194.8170166015625	2414.668701171875	957.5029907226562	-442.3779907226562	1903.1220703125	247.5425109863281	-372.7766418457031	2413.5947265625	979.8974609375	-212.0840759277344	2255.06689453125	900.6153564453125	-484.547119140625	2284.599365234375	918.0932006835938	-157.1036224365234	2242.742919921875	1013.152099609375	-339.6752014160156	2273.127685546875	671.103271484375	-489.9588623046875	2026.322509765625	387.2207641601562	-444.357666015625	2201.38916015625	692.71728515625	-464.7360229492188	2254.64599609375	575.3370971679688	-468.9248962402344	2480.847412109375	104.28857421875	-181.9548187255859	2087.494140625	464.2956848144531	-460.1625366210938	2180.50537109375	596.896240234375	-448.8742980957031	2517.24658203125	743.1286010742188	-171.2161712646484	2033.812744140625	31.58581924438477	-392.4610900878906	2449.142822265625	708.0888671875	-160.3249053955078	2565.00537109375	657.6864624023438	-198.1700286865234	2494.02783203125	617.8381958007812	-178.3621063232422	2201.40966796875	517.7261352539062	-460.5597839355469	2535.492431640625	565.2064819335938	-185.7683715820312	2151.86181640625	413.5806579589844	-462.9950561523438	2087.405029296875	334.4967041015625	-452.3359375	2527.670166015625	442.0857849121094	-182.5701751708984	1976.481323242188	67.22789001464844	-450.7807922363281	2448.078857421875	470.5267333984375	-178.3992309570312	1893.020141601562	225.4806976318359	-340.8113098144531	2486.203369140625	347.7346496582031	-195.1795654296875	2413.49853515625	381.2664184570312	-189.9629058837891	1949.722045898438	216.5099334716797	-430.8316040039062	2380.221435546875	207.4739532470703	-209.6813659667969	2550.9599609375	85.93126678466797	-244.1316986083984	2317.86962890625	199.5877227783203	-262.9449768066406	2320.9697265625	166.7200775146484	-293.1039123535156	2310.3056640625	177.6985626220703	-236.24462890625	1878.384155273438	227.3379058837891	-395.094970703125
273	1.36	2412.598388671875	1462.60888671875	-493.9648132324219	2346.860107421875	1466.230712890625	-205.8048248291016	2397.05615234375	1011.427612304688	-469.0630798339844	2402.732177734375	1024.261596679688	-194.3558502197266	2435.045654296875	960.168212890625	-442.3414916992188	1917.874877929688	256.4381713867188	-375.721923828125	2433.431884765625	983.1774291992188	-211.7789611816406	2271.004150390625	904.2640991210938	-485.7355346679688	2304.29345703125	920.901123046875	-157.6443023681641	2262.26025390625	1016.089538574219	-340.1137390136719	2289.367431640625	675.5543212890625	-490.7059326171875	2039.378173828125	393.0550231933594	-444.9599304199219	2218.130126953125	697.5289916992188	-463.9859313964844	2270.0048828125	579.2926025390625	-470.0664367675781	2520.491943359375	102.8761672973633	-182.2282562255859	2100.96337890625	470.2269897460938	-460.2273864746094	2195.743408203125	602.1204223632812	-449.4354858398438	2535.3779296875	744.5106811523438	-171.0337219238281	2037.551879882812	30.09259605407715	-392.8366394042969	2466.98681640625	709.5930786132812	-161.2389373779297	2583.1123046875	659.3170166015625	-197.5862731933594	2512.022216796875	619.8487548828125	-178.8341979980469	2215.315185546875	522.57861328125	-461.2796630859375	2555.35205078125	566.4283447265625	-186.0070037841797	2165.2265625	419.0723266601562	-464.1974792480469	2100.142333984375	340.2092895507812	-453.5906982421875	2551.1826171875	442.7434692382812	-182.4017028808594	1981.322509765625	70.75464630126953	-450.4747924804688	2469.633056640625	467.521240234375	-177.2364044189453	1906.380981445312	235.5111389160156	-343.4145812988281	2513.787109375	346.5612182617188	-194.7908782958984	2440.515869140625	376.3410339355469	-190.0685119628906	1961.989013671875	223.541259765625	-433.1537475585938	2414.56396484375	200.6377563476562	-210.0135498046875	2591.98828125	88.84599304199219	-244.3876037597656	2353.158203125	189.6770935058594	-263.4249267578125	2358.080322265625	157.337890625	-293.5234985351562	2346.803466796875	167.1974792480469	-236.7049713134766	1893.959350585938	237.6184387207031	-398.7176818847656
